<svg class="plot-d6a7b5" fill="currentColor" font-family="system-ui, sans-serif" font-size="10" text-anchor="middle" width="1152" height="400" viewBox="0 0 1152 400" xmlns="http://www.w3.org/2000/svg" xmlns:xlink="http://www.w3.org/1999/xlink"><style>:where(.plot-d6a7b5) {
  --plot-background: white;
  display: block;
  height: auto;
  height: intrinsic;
  max-width: 100%;
}
:where(.plot-d6a7b5 text),
:where(.plot-d6a7b5 tspan) {
  white-space: pre;
}</style><g aria-label="y-axis tick" fill="none" stroke="currentColor" transform="translate(0,0.5)"><path transform="translate(40,370)" d="M0,0L-6,0"/><path transform="translate(40,320.9116409537167)" d="M0,0L-6,0"/><path transform="translate(40,271.8232819074334)" d="M0,0L-6,0"/><path transform="translate(40,222.73492286115007)" d="M0,0L-6,0"/><path transform="translate(40,173.64656381486677)" d="M0,0L-6,0"/><path transform="translate(40,124.55820476858347)" d="M0,0L-6,0"/><path transform="translate(40,75.46984572230015)" d="M0,0L-6,0"/><path transform="translate(40,26.38148667601684)" d="M0,0L-6,0"/></g><g aria-label="y-axis tick label" text-anchor="end" font-variant="tabular-nums" transform="translate(-8.5,0.5)"><text y="0.32em" transform="translate(40,370)">0</text><text y="0.32em" transform="translate(40,320.9116409537167)">100</text><text y="0.32em" transform="translate(40,271.8232819074334)">200</text><text y="0.32em" transform="translate(40,222.73492286115007)">300</text><text y="0.32em" transform="translate(40,173.64656381486677)">400</text><text y="0.32em" transform="translate(40,124.55820476858347)">500</text><text y="0.32em" transform="translate(40,75.46984572230015)">600</text><text y="0.32em" transform="translate(40,26.38148667601684)">700</text></g><g aria-label="y-axis label" text-anchor="start" transform="translate(-36.5,-16.5)"><text y="0.71em" transform="translate(40,20)">↑ Number of LEGO Sets</text></g><g aria-label="x-axis tick" fill="none" stroke="currentColor" transform="translate(7.5,0)"><path transform="translate(43,370)" d="M0,0L0,6"/><path transform="translate(123,370)" d="M0,0L0,6"/><path transform="translate(203,370)" d="M0,0L0,6"/><path transform="translate(283,370)" d="M0,0L0,6"/><path transform="translate(363,370)" d="M0,0L0,6"/><path transform="translate(443,370)" d="M0,0L0,6"/><path transform="translate(523,370)" d="M0,0L0,6"/><path transform="translate(603,370)" d="M0,0L0,6"/><path transform="translate(683,370)" d="M0,0L0,6"/><path transform="translate(763,370)" d="M0,0L0,6"/><path transform="translate(843,370)" d="M0,0L0,6"/><path transform="translate(923,370)" d="M0,0L0,6"/><path transform="translate(1003,370)" d="M0,0L0,6"/><path transform="translate(1083,370)" d="M0,0L0,6"/></g><g aria-label="x-axis tick label" font-variant="tabular-nums" transform="translate(7.5,9.5)"><text y="0.71em" transform="translate(43,370)">1,950</text><text y="0.71em" transform="translate(123,370)">1,955</text><text y="0.71em" transform="translate(203,370)">1,960</text><text y="0.71em" transform="translate(283,370)">1,965</text><text y="0.71em" transform="translate(363,370)">1,970</text><text y="0.71em" transform="translate(443,370)">1,975</text><text y="0.71em" transform="translate(523,370)">1,980</text><text y="0.71em" transform="translate(603,370)">1,985</text><text y="0.71em" transform="translate(683,370)">1,990</text><text y="0.71em" transform="translate(763,370)">1,995</text><text y="0.71em" transform="translate(843,370)">2,000</text><text y="0.71em" transform="translate(923,370)">2,005</text><text y="0.71em" transform="translate(1003,370)">2,010</text><text y="0.71em" transform="translate(1083,370)">2,015</text></g><g aria-label="x-axis label" transform="translate(0.5,27.5)"><text transform="translate(586,370)">Year →</text></g><g aria-label="bar"><rect x="43" width="14" y="369.5091164095371" height="0.4908835904628859" fill="#fbf8cc"/><rect x="155" width="14" y="369.01823281907434" height="0.9817671809256581" fill="#fbf8cc"/><rect x="171" width="14" y="369.5091164095371" height="0.4908835904628859" fill="#fbf8cc"/><rect x="187" width="14" y="369.5091164095371" height="0.4908835904628859" fill="#fbf8cc"/><rect x="283" width="14" y="368.5273492286115" height="1.472650771388487" fill="#fbf8cc"/><rect x="315" width="14" y="369.5091164095371" height="0.4908835904628859" fill="#fbf8cc"/><rect x="331" width="14" y="366.56381486676014" height="3.43618513323986" fill="#fbf8cc"/><rect x="347" width="14" y="369.01823281907434" height="0.9817671809256581" fill="#fbf8cc"/><rect x="411" width="14" y="364.6002805049089" height="5.399719495091119" fill="#fbf8cc"/><rect x="427" width="14" y="369.01823281907434" height="0.9817671809256581" fill="#fbf8cc"/><rect x="459" width="14" y="365.5820476858345" height="3.9270687237026323" fill="#fbf8cc"/><rect x="475" width="14" y="356.2552594670407" height="3.9270687237026323" fill="#fbf8cc"/><rect x="491" width="14" y="369.5091164095371" height="0.4908835904628859" fill="#fbf8cc"/><rect x="507" width="14" y="369.01823281907434" height="0.9817671809256581" fill="#fbf8cc"/><rect x="523" width="14" y="368.0364656381486" height="1.472650771388487" fill="#fbf8cc"/><rect x="539" width="14" y="362.1458625525947" height="4.417952314165461" fill="#fbf8cc"/><rect x="555" width="14" y="364.109396914446" height="1.963534361851373" fill="#fbf8cc"/><rect x="571" width="14" y="366.56381486676014" height="2.454417952314202" fill="#fbf8cc"/><rect x="587" width="14" y="361.6549789621318" height="2.454417952314202" fill="#fbf8cc"/><rect x="603" width="14" y="364.109396914446" height="0.9817671809256581" fill="#fbf8cc"/><rect x="619" width="14" y="363.61851332398317" height="0.49088359046282903" fill="#fbf8cc"/><rect x="635" width="14" y="345.9467040673212" height="0.4908835904627722" fill="#fbf8cc"/><rect x="651" width="14" y="367.54558204768585" height="0.4908835904627722" fill="#fbf8cc"/><rect x="699" width="14" y="362.6367461430575" height="0.9817671809256581" fill="#fbf8cc"/><rect x="715" width="14" y="366.56381486676014" height="1.472650771388487" fill="#fbf8cc"/><rect x="731" width="14" y="362.6367461430575" height="0.9817671809256581" fill="#fbf8cc"/><rect x="747" width="14" y="367.54558204768585" height="0.4908835904627722" fill="#fbf8cc"/><rect x="763" width="14" y="367.54558204768585" height="0.4908835904627722" fill="#fbf8cc"/><rect x="779" width="14" y="366.07293127629737" height="0.4908835904627722" fill="#fbf8cc"/><rect x="795" width="14" y="367.54558204768585" height="0.9817671809256581" fill="#fbf8cc"/><rect x="811" width="14" y="362.6367461430575" height="2.454417952314145" fill="#fbf8cc"/><rect x="827" width="14" y="362.1458625525947" height="0.49088359046282903" fill="#fbf8cc"/><rect x="859" width="14" y="357.23702664796633" height="7.363253856942549" fill="#fbf8cc"/><rect x="875" width="14" y="330.2384291725105" height="5.890603085554005" fill="#fbf8cc"/><rect x="891" width="14" y="349.87377279102384" height="5.890603085554005" fill="#fbf8cc"/><rect x="907" width="14" y="346.437587657784" height="6.872370266479663" fill="#fbf8cc"/><rect x="923" width="14" y="358.7096774193548" height="7.363253856942549" fill="#fbf8cc"/><rect x="939" width="14" y="351.3464235624124" height="8.34502103786815" fill="#fbf8cc"/><rect x="955" width="14" y="354.29172510518936" height="4.908835904628347" fill="#fbf8cc"/><rect x="971" width="14" y="359.2005610098177" height="4.90883590462829" fill="#fbf8cc"/><rect x="987" width="14" y="350.36465638148667" height="7.854137447405378" fill="#fbf8cc"/><rect x="1003" width="14" y="344.9649368863955" height="5.399719495091176" fill="#fbf8cc"/><rect x="1019" width="14" y="324.34782608695656" height="2.454417952314145" fill="#fbf8cc"/><rect x="1035" width="14" y="314.53015427769986" height="0.9817671809256581" fill="#fbf8cc"/><rect x="1051" width="14" y="312.0757363253857" height="4.417952314165461" fill="#fbf8cc"/><rect x="1067" width="14" y="286.05890603085555" height="0.9817671809256581" fill="#fbf8cc"/><rect x="1083" width="14" y="318.9481065918653" height="3.43618513323986" fill="#fbf8cc"/><rect x="1099" width="14" y="341.03786816269286" height="0.4908835904627722" fill="#fbf8cc"/><rect x="923" width="14" y="345.9467040673212" height="12.762973352033612" fill="#fde4cf"/><rect x="939" width="14" y="338.09256661991583" height="13.253856942496554" fill="#fde4cf"/><rect x="955" width="14" y="340.05610098176714" height="14.235624123422213" fill="#fde4cf"/><rect x="971" width="14" y="344.4740532959327" height="14.726507713884985" fill="#fde4cf"/><rect x="987" width="14" y="335.6381486676017" height="14.726507713884985" fill="#fde4cf"/><rect x="1003" width="14" y="331.71107994389905" height="13.25385694249644" fill="#fde4cf"/><rect x="1019" width="14" y="309.6213183730715" height="14.726507713885042" fill="#fde4cf"/><rect x="1035" width="14" y="284.58625525946707" height="1.472650771388487" fill="#fde4cf"/><rect x="1051" width="14" y="276.2412342215989" height="14.235624123422156" fill="#fde4cf"/><rect x="1067" width="14" y="243.35203366058903" height="16.690042075736358" fill="#fde4cf"/><rect x="1083" width="14" y="292.4403927068724" height="1.472650771388487" fill="#fde4cf"/><rect x="1099" width="14" y="312.5666199158485" height="6.381486676016834" fill="#fde4cf"/><rect x="1115" width="14" y="341.03786816269286" height="2.945301542776974" fill="#fde4cf"/><rect x="859" width="14" y="364.6002805049089" height="1.9635343618512593" fill="#ffcfd2"/><rect x="875" width="14" y="336.1290322580645" height="12.27208976157084" fill="#ffcfd2"/><rect x="891" width="14" y="355.76437587657784" height="13.253856942496498" fill="#ffcfd2"/><rect x="907" width="14" y="353.30995792426364" height="14.726507713884985" fill="#ffcfd2"/><rect x="923" width="14" y="366.07293127629737" height="0.4908835904627722" fill="#ffcfd2"/><rect x="939" width="14" y="359.69144460028053" height="5.399719495091119" fill="#ffcfd2"/><rect x="955" width="14" y="359.2005610098177" height="3.9270687237026323" fill="#ffcfd2"/><rect x="971" width="14" y="364.109396914446" height="2.454417952314145" fill="#ffcfd2"/><rect x="987" width="14" y="358.21879382889205" height="3.4361851332397464" fill="#ffcfd2"/><rect x="1003" width="14" y="350.36465638148667" height="2.945301542776974" fill="#ffcfd2"/><rect x="1019" width="14" y="326.8022440392707" height="5.890603085553948" fill="#ffcfd2"/><rect x="1035" width="14" y="315.5119214586255" height="7.854137447405321" fill="#ffcfd2"/><rect x="1051" width="14" y="316.4936886395512" height="13.253856942496498" fill="#ffcfd2"/><rect x="1067" width="14" y="287.0406732117812" height="12.27208976157084" fill="#ffcfd2"/><rect x="1083" width="14" y="322.3842917251052" height="2.945301542777031" fill="#ffcfd2"/><rect x="1099" width="14" y="341.52875175315563" height="12.272089761570896" fill="#ffcfd2"/><rect x="1115" width="14" y="352.81907433380087" height="6.872370266479663" fill="#ffcfd2"/><rect x="475" width="14" y="369.5091164095371" height="0.4908835904628859" fill="#f1c0e8"/><rect x="587" width="14" y="369.01823281907434" height="0.9817671809256581" fill="#f1c0e8"/><rect x="635" width="14" y="369.5091164095371" height="0.4908835904628859" fill="#f1c0e8"/><rect x="667" width="14" y="369.5091164095371" height="0.4908835904628859" fill="#f1c0e8"/><rect x="683" width="14" y="369.5091164095371" height="0.4908835904628859" fill="#f1c0e8"/><rect x="699" width="14" y="369.5091164095371" height="0.4908835904628859" fill="#f1c0e8"/><rect x="715" width="14" y="369.5091164095371" height="0.4908835904628859" fill="#f1c0e8"/><rect x="731" width="14" y="369.01823281907434" height="0.9817671809256581" fill="#f1c0e8"/><rect x="795" width="14" y="369.5091164095371" height="0.4908835904628859" fill="#f1c0e8"/><rect x="811" width="14" y="369.5091164095371" height="0.4908835904628859" fill="#f1c0e8"/><rect x="827" width="14" y="368.5273492286115" height="0.9817671809256012" fill="#f1c0e8"/><rect x="843" width="14" y="367.054698457223" height="0.9817671809256012" fill="#f1c0e8"/><rect x="859" width="14" y="367.54558204768585" height="0.9817671809256581" fill="#f1c0e8"/><rect x="875" width="14" y="366.07293127629737" height="0.4908835904627722" fill="#f1c0e8"/><rect x="907" width="14" y="369.5091164095371" height="0.4908835904628859" fill="#f1c0e8"/><rect x="923" width="14" y="367.54558204768585" height="2.454417952314145" fill="#f1c0e8"/><rect x="939" width="14" y="365.5820476858345" height="4.417952314165518" fill="#f1c0e8"/><rect x="955" width="14" y="365.5820476858345" height="4.417952314165518" fill="#f1c0e8"/><rect x="971" width="14" y="368.5273492286115" height="1.472650771388487" fill="#f1c0e8"/><rect x="987" width="14" y="367.54558204768585" height="1.9635343618512593" fill="#f1c0e8"/><rect x="1003" width="14" y="363.61851332398317" height="5.890603085553948" fill="#f1c0e8"/><rect x="1019" width="14" y="348.8920056100982" height="7.363253856942492" fill="#f1c0e8"/><rect x="1035" width="14" y="339.5652173913044" height="13.253856942496498" fill="#f1c0e8"/><rect x="1051" width="14" y="342.0196353436185" height="12.762973352033669" fill="#f1c0e8"/><rect x="1067" width="14" y="330.2384291725105" height="17.180925666199187" fill="#f1c0e8"/><rect x="1083" width="14" y="343.00140252454423" height="15.708274894810586" fill="#f1c0e8"/><rect x="1099" width="14" y="354.29172510518936" height="8.83590462833098" fill="#f1c0e8"/><rect x="1115" width="14" y="360.1823281907433" height="1.963534361851373" fill="#f1c0e8"/><rect x="1035" width="14" y="286.05890603085555" height="28.47124824684431" fill="#cfbaf0"/><rect x="1051" width="14" y="290.47685834502107" height="21.598877980364648" fill="#cfbaf0"/><rect x="1067" width="14" y="260.0420757363254" height="26.016830294530166" fill="#cfbaf0"/><rect x="1083" width="14" y="293.9130434782609" height="25.03506311360445" fill="#cfbaf0"/><rect x="1099" width="14" y="318.9481065918653" height="22.089761570827534" fill="#cfbaf0"/><rect x="1115" width="14" y="343.98316970546983" height="8.835904628331036" fill="#cfbaf0"/><rect x="459" width="14" y="369.5091164095371" height="0.4908835904628859" fill="#a3c4f3"/><rect x="539" width="14" y="366.56381486676014" height="0.4908835904628859" fill="#a3c4f3"/><rect x="603" width="14" y="365.09116409537165" height="0.49088359046282903" fill="#a3c4f3"/><rect x="811" width="14" y="365.09116409537165" height="0.9817671809257149" fill="#a3c4f3"/><rect x="827" width="14" y="362.6367461430575" height="0.49088359046282903" fill="#a3c4f3"/><rect x="843" width="14" y="366.07293127629737" height="0.9817671809256581" fill="#a3c4f3"/><rect x="875" width="14" y="348.40112201963535" height="1.472650771388487" fill="#a3c4f3"/><rect x="907" width="14" y="368.0364656381486" height="0.9817671809257149" fill="#a3c4f3"/><rect x="923" width="14" y="366.56381486676014" height="0.9817671809257149" fill="#a3c4f3"/><rect x="939" width="14" y="365.09116409537165" height="0.49088359046282903" fill="#a3c4f3"/><rect x="955" width="14" y="363.12762973352034" height="1.472650771388544" fill="#a3c4f3"/><rect x="971" width="14" y="366.56381486676014" height="1.963534361851373" fill="#a3c4f3"/><rect x="987" width="14" y="361.6549789621318" height="5.890603085554062" fill="#a3c4f3"/><rect x="1003" width="14" y="353.30995792426364" height="9.817671809256694" fill="#a3c4f3"/><rect x="1019" width="14" y="332.69284712482465" height="16.19915848527353" fill="#a3c4f3"/><rect x="1035" width="14" y="323.36605890603084" height="15.7082748948107" fill="#a3c4f3"/><rect x="1051" width="14" y="329.7475455820477" height="12.27208976157084" fill="#a3c4f3"/><rect x="1067" width="14" y="299.31276297335205" height="30.925666199158456" fill="#a3c4f3"/><rect x="1083" width="14" y="325.3295932678822" height="17.671809256662016" fill="#a3c4f3"/><rect x="1099" width="14" y="353.8008415147265" height="0.49088359046282903" fill="#a3c4f3"/><rect x="1115" width="14" y="359.69144460028053" height="0.4908835904627722" fill="#a3c4f3"/><rect x="107" width="14" y="363.12762973352034" height="0.9817671809256581" fill="grey"/><rect x="123" width="14" y="356.2552594670407" height="3.9270687237026323" fill="grey"/><rect x="139" width="14" y="364.109396914446" height="2.454417952314145" fill="grey"/><rect x="155" width="14" y="359.69144460028053" height="6.381486676016834" fill="grey"/><rect x="171" width="14" y="349.38288920056095" height="4.908835904628404" fill="grey"/><rect x="187" width="14" y="368.0364656381486" height="0.4908835904628859" fill="grey"/><rect x="203" width="14" y="368.5273492286115" height="0.9817671809256012" fill="grey"/><rect x="219" width="14" y="361.6549789621318" height="2.454417952314202" fill="grey"/><rect x="235" width="14" y="350.36465638148667" height="15.7082748948107" fill="grey"/><rect x="251" width="14" y="361.164095371669" height="4.417952314165461" fill="grey"/><rect x="267" width="14" y="364.6002805049089" height="3.9270687237026323" fill="grey"/><rect x="283" width="14" y="365.09116409537165" height="1.963534361851373" fill="grey"/><rect x="299" width="14" y="326.3113604488078" height="8.835904628331093" fill="grey"/><rect x="315" width="14" y="359.69144460028053" height="6.8723702664796065" fill="grey"/><rect x="331" width="14" y="357.72791023842916" height="8.345021037868207" fill="grey"/><rect x="347" width="14" y="336.1290322580645" height="14.726507713884985" fill="grey"/><rect x="363" width="14" y="355.76437587657784" height="13.74474053295927" fill="grey"/><rect x="379" width="14" y="347.91023842917247" height="19.14446002805056" fill="grey"/><rect x="395" width="14" y="351.3464235624124" height="15.217391304347757" fill="grey"/><rect x="411" width="14" y="337.11079943899017" height="21.107994389901876" fill="grey"/><rect x="427" width="14" y="350.8555399719495" height="17.671809256662016" fill="grey"/><rect x="443" width="14" y="354.7826086956522" height="15.217391304347814" fill="grey"/><rect x="459" width="14" y="336.6199158485274" height="27.489481065918596" fill="grey"/><rect x="475" width="14" y="324.83870967741933" height="30.43478260869574" fill="grey"/><rect x="491" width="14" y="334.16549789621314" height="30.925666199158513" fill="grey"/><rect x="507" width="14" y="329.7475455820477" height="33.38008415147266" fill="grey"/><rect x="523" width="14" y="326.8022440392707" height="30.925666199158456" fill="grey"/><rect x="539" width="14" y="331.22019635343617" height="28.96213183730714" fill="grey"/><rect x="555" width="14" y="332.69284712482465" height="20.61711079943899" fill="grey"/><rect x="571" width="14" y="342.0196353436185" height="21.598877980364648" fill="grey"/><rect x="587" width="14" y="332.69284712482465" height="24.54417952314168" fill="grey"/><rect x="603" width="14" y="301.7671809256662" height="49.57924263674619" fill="grey"/><rect x="619" width="14" y="309.6213183730715" height="38.779803646563835" fill="grey"/><rect x="635" width="14" y="267.4053295932679" height="50.56100981767179" fill="grey"/><rect x="651" width="14" y="336.6199158485274" height="26.01683029453011" fill="grey"/><rect x="667" width="14" y="313.5483870967742" height="42.21598877980364" fill="grey"/><rect x="683" width="14" y="328.2748948106592" height="37.30715287517529" fill="grey"/><rect x="699" width="14" y="317.47545582047684" height="39.76157082748949" fill="grey"/><rect x="715" width="14" y="313.5483870967742" height="37.30715287517529" fill="grey"/><rect x="731" width="14" y="315.5119214586255" height="39.270687237026664" fill="grey"/><rect x="747" width="14" y="307.1669004207574" height="45.16129032258061" fill="grey"/><rect x="763" width="14" y="307.1669004207574" height="49.0883590462833" fill="grey"/><rect x="779" width="14" y="299.31276297335205" height="52.524544179523105" fill="grey"/><rect x="795" width="14" y="275.75035063113603" height="81.4866760168303" fill="grey"/><rect x="811" width="14" y="210.46283309957923" height="143.82889200561013" fill="grey"/><rect x="827" width="14" y="222.73492286115007" height="130.0841514726508" fill="grey"/><rect x="843" width="14" y="209.4810659186536" height="150.7012622720897" fill="grey"/><rect x="859" width="14" y="203.59046283309956" height="151.6830294530155" fill="grey"/><rect x="875" width="14" y="150.57503506311363" height="145.79242636746145" fill="grey"/><rect x="891" width="14" y="166.28330995792427" height="176.22720897615707" fill="grey"/><rect x="907" width="14" y="187.88218793828892" height="154.1374474053296" fill="grey"/><rect x="923" width="14" y="208.00841514726505" height="127.62973352033663" fill="grey"/><rect x="939" width="14" y="231.0799438990182" height="103.08555399719495" fill="grey"/><rect x="955" width="14" y="212.42636746143054" height="121.24824684431982" fill="grey"/><rect x="971" width="14" y="198.68162692847125" height="136.46563814866767" fill="grey"/><rect x="987" width="14" y="172.66479663394108" height="159.5371669004208" fill="grey"/><rect x="1003" width="14" y="152.04768583450212" height="174.2636746143057" fill="grey"/><rect x="1019" width="14" y="123.08555399719498" height="185.55399719495088" fill="grey"/><rect x="1035" width="14" y="68.10659186535766" height="214.51612903225805" fill="grey"/><rect x="1051" width="14" y="78.90603085553997" height="192.91725105189343" fill="grey"/><rect x="1067" width="14" y="20" height="217.46143057503508" fill="grey"/><rect x="1083" width="14" y="43.56241234221599" height="247.89621318373074" fill="grey"/><rect x="1099" width="14" y="77.43338008415148" height="229.7335203366059" fill="grey"/><rect x="1115" width="14" y="224.6984572230014" height="110.93969144460027" fill="grey"/><rect x="475" width="14" y="360.1823281907433" height="9.326788218793808" fill="#90dbf4"/><rect x="523" width="14" y="369.5091164095371" height="0.4908835904628859" fill="#90dbf4"/><rect x="539" width="14" y="367.054698457223" height="2.945301542776974" fill="#90dbf4"/><rect x="555" width="14" y="366.07293127629737" height="3.9270687237026323" fill="#90dbf4"/><rect x="571" width="14" y="369.01823281907434" height="0.9817671809256581" fill="#90dbf4"/><rect x="587" width="14" y="364.109396914446" height="4.908835904628347" fill="#90dbf4"/><rect x="603" width="14" y="365.5820476858345" height="4.417952314165518" fill="#90dbf4"/><rect x="619" width="14" y="364.109396914446" height="5.890603085554005" fill="#90dbf4"/><rect x="635" width="14" y="346.437587657784" height="23.071528751753135" fill="#90dbf4"/><rect x="651" width="14" y="368.0364656381486" height="1.963534361851373" fill="#90dbf4"/><rect x="667" width="14" y="360.1823281907433" height="9.326788218793808" fill="#90dbf4"/><rect x="683" width="14" y="368.0364656381486" height="1.472650771388487" fill="#90dbf4"/><rect x="699" width="14" y="363.61851332398317" height="5.890603085553948" fill="#90dbf4"/><rect x="715" width="14" y="368.0364656381486" height="1.472650771388487" fill="#90dbf4"/><rect x="731" width="14" y="363.61851332398317" height="5.399719495091176" fill="#90dbf4"/><rect x="747" width="14" y="368.0364656381486" height="1.963534361851373" fill="#90dbf4"/><rect x="763" width="14" y="368.0364656381486" height="1.963534361851373" fill="#90dbf4"/><rect x="779" width="14" y="366.56381486676014" height="3.43618513323986" fill="#90dbf4"/><rect x="795" width="14" y="368.5273492286115" height="0.9817671809256012" fill="#90dbf4"/><rect x="811" width="14" y="366.07293127629737" height="3.4361851332397464" fill="#90dbf4"/><rect x="827" width="14" y="363.12762973352034" height="5.399719495091176" fill="#90dbf4"/><rect x="859" width="14" y="366.56381486676014" height="0.9817671809257149" fill="#90dbf4"/><rect x="875" width="14" y="349.87377279102384" height="16.19915848527353" fill="#90dbf4"/><rect x="891" width="14" y="369.01823281907434" height="0.4908835904627722" fill="#90dbf4"/><rect x="907" width="14" y="369.01823281907434" height="0.4908835904627722" fill="#90dbf4"/><rect x="955" width="14" y="364.6002805049089" height="0.9817671809256012" fill="#90dbf4"/><rect x="1003" width="14" y="363.12762973352034" height="0.49088359046282903" fill="#90dbf4"/><rect x="1035" width="14" y="339.07433380084154" height="0.49088359046282903" fill="#90dbf4"/><rect x="827" width="14" y="369.5091164095371" height="0.4908835904628859" fill="#8eecf5"/><rect x="843" width="14" y="368.0364656381486" height="1.963534361851373" fill="#8eecf5"/><rect x="859" width="14" y="368.5273492286115" height="1.472650771388487" fill="#8eecf5"/><rect x="875" width="14" y="366.56381486676014" height="3.43618513323986" fill="#8eecf5"/><rect x="891" width="14" y="369.5091164095371" height="0.4908835904628859" fill="#8eecf5"/><rect x="987" width="14" y="369.5091164095371" height="0.4908835904628859" fill="#8eecf5"/><rect x="1003" width="14" y="369.5091164095371" height="0.4908835904628859" fill="#8eecf5"/><rect x="1019" width="14" y="356.2552594670407" height="13.744740532959327" fill="#8eecf5"/><rect x="1035" width="14" y="352.81907433380087" height="17.18092566619913" fill="#8eecf5"/><rect x="1051" width="14" y="354.7826086956522" height="15.217391304347814" fill="#8eecf5"/><rect x="1067" width="14" y="347.4193548387097" height="22.580645161290306" fill="#8eecf5"/><rect x="1083" width="14" y="358.7096774193548" height="11.290322580645181" fill="#8eecf5"/><rect x="1099" width="14" y="363.12762973352034" height="6.872370266479663" fill="#8eecf5"/><rect x="1115" width="14" y="362.1458625525947" height="7.854137447405321" fill="#8eecf5"/><rect x="43" width="14" y="366.56381486676014" height="2.945301542776974" fill="#98f5e1"/><rect x="91" width="14" y="368.0364656381486" height="1.963534361851373" fill="#98f5e1"/><rect x="107" width="14" y="364.109396914446" height="5.890603085554005" fill="#98f5e1"/><rect x="123" width="14" y="360.1823281907433" height="9.817671809256694" fill="#98f5e1"/><rect x="139" width="14" y="366.56381486676014" height="3.43618513323986" fill="#98f5e1"/><rect x="155" width="14" y="366.07293127629737" height="2.945301542776974" fill="#98f5e1"/><rect x="171" width="14" y="354.29172510518936" height="15.217391304347757" fill="#98f5e1"/><rect x="187" width="14" y="368.5273492286115" height="0.9817671809256012" fill="#98f5e1"/><rect x="203" width="14" y="369.5091164095371" height="0.4908835904628859" fill="#98f5e1"/><rect x="219" width="14" y="364.109396914446" height="5.890603085554005" fill="#98f5e1"/><rect x="235" width="14" y="366.07293127629737" height="3.9270687237026323" fill="#98f5e1"/><rect x="251" width="14" y="365.5820476858345" height="4.417952314165518" fill="#98f5e1"/><rect x="267" width="14" y="368.5273492286115" height="1.472650771388487" fill="#98f5e1"/><rect x="283" width="14" y="367.054698457223" height="1.472650771388487" fill="#98f5e1"/><rect x="299" width="14" y="335.1472650771389" height="34.85273492286109" fill="#98f5e1"/><rect x="315" width="14" y="366.56381486676014" height="2.945301542776974" fill="#98f5e1"/><rect x="331" width="14" y="366.07293127629737" height="0.4908835904627722" fill="#98f5e1"/><rect x="347" width="14" y="350.8555399719495" height="18.162692847124845" fill="#98f5e1"/><rect x="363" width="14" y="369.5091164095371" height="0.4908835904628859" fill="#98f5e1"/><rect x="379" width="14" y="367.054698457223" height="2.945301542776974" fill="#98f5e1"/><rect x="395" width="14" y="366.56381486676014" height="3.43618513323986" fill="#98f5e1"/><rect x="411" width="14" y="358.21879382889205" height="5.890603085553948" fill="#98f5e1"/><rect x="427" width="14" y="368.5273492286115" height="0.49088359046282903" fill="#98f5e1"/><rect x="459" width="14" y="364.109396914446" height="1.472650771388487" fill="#98f5e1"/><rect x="475" width="14" y="355.2734922861151" height="0.4908835904627722" fill="#98f5e1"/><rect x="491" width="14" y="365.09116409537165" height="3.927068723702689" fill="#98f5e1"/><rect x="507" width="14" y="363.12762973352034" height="5.399719495091176" fill="#98f5e1"/><rect x="523" width="14" y="357.72791023842916" height="9.817671809256694" fill="#98f5e1"/><rect x="539" width="14" y="360.1823281907433" height="0.4908835904628859" fill="#98f5e1"/><rect x="555" width="14" y="353.30995792426364" height="1.472650771388544" fill="#98f5e1"/><rect x="571" width="14" y="363.61851332398317" height="2.945301542776974" fill="#98f5e1"/><rect x="587" width="14" y="357.23702664796633" height="1.472650771388487" fill="#98f5e1"/><rect x="603" width="14" y="351.3464235624124" height="2.454417952314145" fill="#98f5e1"/><rect x="619" width="14" y="348.40112201963535" height="11.290322580645181" fill="#98f5e1"/><rect x="635" width="14" y="317.96633941093967" height="0.9817671809256581" fill="#98f5e1"/><rect x="651" width="14" y="362.6367461430575" height="3.43618513323986" fill="#98f5e1"/><rect x="667" width="14" y="355.76437587657784" height="0.49088359046282903" fill="#98f5e1"/><rect x="683" width="14" y="365.5820476858345" height="1.472650771388544" fill="#98f5e1"/><rect x="699" width="14" y="357.23702664796633" height="2.454417952314202" fill="#98f5e1"/><rect x="715" width="14" y="350.8555399719495" height="2.454417952314145" fill="#98f5e1"/><rect x="731" width="14" y="354.7826086956522" height="1.472650771388487" fill="#98f5e1"/><rect x="747" width="14" y="352.328190743338" height="0.4908835904628859" fill="#98f5e1"/><rect x="763" width="14" y="356.2552594670407" height="1.963534361851373" fill="#98f5e1"/><rect x="779" width="14" y="351.83730715287516" height="8.34502103786815" fill="#98f5e1"/><rect x="795" width="14" y="357.23702664796633" height="3.43618513323986" fill="#98f5e1"/><rect x="811" width="14" y="354.29172510518936" height="1.9635343618513161" fill="#98f5e1"/><rect x="827" width="14" y="352.81907433380087" height="0.4908835904627722" fill="#98f5e1"/><rect x="843" width="14" y="360.1823281907433" height="3.927068723702689" fill="#98f5e1"/><rect x="859" width="14" y="355.2734922861151" height="0.9817671809256012" fill="#98f5e1"/><rect x="875" width="14" y="296.3674614305751" height="2.945301542776974" fill="#98f5e1"/><rect x="891" width="14" y="342.51051893408135" height="0.9817671809256581" fill="#98f5e1"/><rect x="907" width="14" y="342.0196353436185" height="4.417952314165461" fill="#98f5e1"/><rect x="923" width="14" y="335.6381486676017" height="10.308555399719523" fill="#98f5e1"/><rect x="939" width="14" y="334.16549789621314" height="2.945301542777031" fill="#98f5e1"/><rect x="955" width="14" y="333.67461430575037" height="2.454417952314145" fill="#98f5e1"/><rect x="971" width="14" y="335.1472650771389" height="5.399719495091119" fill="#98f5e1"/><rect x="987" width="14" y="332.2019635343619" height="1.472650771388487" fill="#98f5e1"/><rect x="1003" width="14" y="326.3113604488078" height="4.908835904628347" fill="#98f5e1"/><rect x="1067" width="14" y="237.46143057503508" height="1.4726507713884587" fill="#98f5e1"/><rect x="411" width="14" y="364.109396914446" height="0.4908835904628859" fill="#b9fbc0"/><rect x="475" width="14" y="355.76437587657784" height="0.49088359046282903" fill="#b9fbc0"/><rect x="491" width="14" y="369.01823281907434" height="0.4908835904627722" fill="#b9fbc0"/><rect x="507" width="14" y="368.5273492286115" height="0.49088359046282903" fill="#b9fbc0"/><rect x="523" width="14" y="367.54558204768585" height="0.4908835904627722" fill="#b9fbc0"/><rect x="539" width="14" y="360.6732117812062" height="1.472650771388487" fill="#b9fbc0"/><rect x="555" width="14" y="354.7826086956522" height="9.326788218793808" fill="#b9fbc0"/><rect x="587" width="14" y="358.7096774193548" height="2.945301542776974" fill="#b9fbc0"/><rect x="603" width="14" y="353.8008415147265" height="10.308555399719467" fill="#b9fbc0"/><rect x="619" width="14" y="359.69144460028053" height="3.9270687237026323" fill="#b9fbc0"/><rect x="635" width="14" y="318.9481065918653" height="26.99859747545588" fill="#b9fbc0"/><rect x="651" width="14" y="366.07293127629737" height="1.472650771388487" fill="#b9fbc0"/><rect x="667" width="14" y="356.2552594670407" height="3.9270687237026323" fill="#b9fbc0"/><rect x="683" width="14" y="367.054698457223" height="0.9817671809256012" fill="#b9fbc0"/><rect x="699" width="14" y="359.69144460028053" height="2.945301542776974" fill="#b9fbc0"/><rect x="715" width="14" y="353.30995792426364" height="13.253856942496498" fill="#b9fbc0"/><rect x="731" width="14" y="356.2552594670407" height="6.381486676016834" fill="#b9fbc0"/><rect x="747" width="14" y="352.81907433380087" height="14.726507713884985" fill="#b9fbc0"/><rect x="763" width="14" y="358.21879382889205" height="9.326788218793808" fill="#b9fbc0"/><rect x="779" width="14" y="360.1823281907433" height="5.890603085554062" fill="#b9fbc0"/><rect x="795" width="14" y="360.6732117812062" height="6.872370266479663" fill="#b9fbc0"/><rect x="811" width="14" y="356.2552594670407" height="6.381486676016834" fill="#b9fbc0"/><rect x="827" width="14" y="353.30995792426364" height="8.835904628331036" fill="#b9fbc0"/><rect x="843" width="14" y="364.109396914446" height="1.963534361851373" fill="#b9fbc0"/><rect x="859" width="14" y="356.2552594670407" height="0.9817671809256581" fill="#b9fbc0"/><rect x="875" width="14" y="299.31276297335205" height="30.925666199158456" fill="#b9fbc0"/><rect x="891" width="14" y="343.492286115007" height="6.381486676016834" fill="#b9fbc0"/><rect x="939" width="14" y="337.11079943899017" height="0.9817671809256581" fill="#b9fbc0"/><rect x="955" width="14" y="336.1290322580645" height="3.9270687237026323" fill="#b9fbc0"/><rect x="971" width="14" y="340.54698457223003" height="3.927068723702689" fill="#b9fbc0"/><rect x="987" width="14" y="333.67461430575037" height="1.9635343618513161" fill="#b9fbc0"/><rect x="1003" width="14" y="331.22019635343617" height="0.4908835904628859" fill="#b9fbc0"/><rect x="1019" width="14" y="308.63955119214586" height="0.9817671809256581" fill="#b9fbc0"/><rect x="1035" width="14" y="282.6227208976157" height="1.963534361851373" fill="#b9fbc0"/><rect x="1051" width="14" y="271.8232819074334" height="4.417952314165518" fill="#b9fbc0"/><rect x="1067" width="14" y="238.93408134642354" height="4.41795231416549" fill="#b9fbc0"/><rect x="1083" width="14" y="291.45862552594673" height="0.9817671809256581" fill="#b9fbc0"/><rect x="1099" width="14" y="307.1669004207574" height="5.399719495091119" fill="#b9fbc0"/><rect x="1115" width="14" y="335.6381486676017" height="5.399719495091176" fill="#b9fbc0"/></g><g aria-label="rule" stroke="currentColor" transform="translate(0,0.5)"><line x1="40" x2="1132" y1="370" y2="370"/></g><g aria-label="tip" fill="var(--plot-background)" stroke="currentColor" pointer-events="none" text-anchor="start" transform="translate(7.5,0.5)"/></svg>